<svg xmlns="http://www.w3.org/2000/svg" xmlns:xlink="http://www.w3.org/1999/xlink" width="900" viewBox="0 0 675 225" height="300" preserveAspectRatio="xMidYMid meet"><defs><g></g><clipPath id="9111e68b36"><path d="M 47.542969 128.253906 L 209.542969 128.253906 L 209.542969 213.003906 L 47.542969 213.003906 Z M 47.542969 128.253906 " clip-rule="nonzero"></path></clipPath><clipPath id="16e29cc725"><path d="M 141.289062 47.574219 L 209.539062 47.574219 L 209.539062 82.824219 L 141.289062 82.824219 Z M 141.289062 47.574219 " clip-rule="nonzero"></path></clipPath><clipPath id="89d04e1a2f"><path d="M 141.289062 12.148438 L 209.539062 12.148438 L 209.539062 47.398438 L 141.289062 47.398438 Z M 141.289062 12.148438 " clip-rule="nonzero"></path></clipPath><clipPath id="78d0f813f9"><path d="M 45.707031 47.257812 L 129 47.257812 L 129 213 L 45.707031 213 Z M 45.707031 47.257812 " clip-rule="nonzero"></path></clipPath><clipPath id="898bb4aaf7"><path d="M 106 96 L 169.457031 96 L 169.457031 160 L 106 160 Z M 106 96 " clip-rule="nonzero"></path></clipPath></defs><g clip-path="url(#9111e68b36)"><path fill="#e9bb71" d="M 50.710938 128.476562 L 206.207031 128.476562 C 206.664062 128.46875 207.097656 128.554688 207.519531 128.726562 C 207.941406 128.894531 208.3125 129.140625 208.632812 129.464844 C 208.953125 129.785156 209.199219 130.152344 209.375 130.574219 C 209.546875 130.996094 209.628906 131.429688 209.625 131.886719 C 209.625 133.214844 209.59375 134.539062 209.527344 135.867188 C 209.460938 137.191406 209.363281 138.515625 209.234375 139.839844 C 209.101562 141.160156 208.9375 142.476562 208.742188 143.792969 C 208.546875 145.105469 208.320312 146.414062 208.0625 147.714844 C 207.800781 149.015625 207.511719 150.3125 207.1875 151.601562 C 206.863281 152.890625 206.511719 154.167969 206.125 155.4375 C 205.738281 156.710938 205.320312 157.96875 204.875 159.21875 C 204.425781 160.46875 203.949219 161.707031 203.441406 162.933594 C 202.929688 164.164062 202.394531 165.375 201.824219 166.574219 C 201.257812 167.777344 200.660156 168.960938 200.035156 170.132812 C 199.40625 171.304688 198.753906 172.460938 198.070312 173.597656 C 197.386719 174.738281 196.675781 175.859375 195.9375 176.960938 C 195.199219 178.066406 194.4375 179.152344 193.644531 180.21875 C 192.851562 181.285156 192.035156 182.332031 191.195312 183.355469 C 190.351562 184.382812 189.484375 185.386719 188.589844 186.371094 C 187.699219 187.355469 186.785156 188.316406 185.84375 189.257812 C 184.90625 190.195312 183.945312 191.109375 182.960938 192.003906 C 181.976562 192.894531 180.96875 193.761719 179.945312 194.601562 C 178.917969 195.445312 177.871094 196.261719 176.804688 197.050781 C 175.738281 197.84375 174.652344 198.609375 173.546875 199.34375 C 172.441406 200.082031 171.320312 200.792969 170.183594 201.476562 C 169.042969 202.160156 167.886719 202.8125 166.71875 203.4375 C 165.546875 204.0625 164.359375 204.660156 163.160156 205.230469 C 161.957031 205.796875 160.746094 206.335938 159.519531 206.84375 C 158.292969 207.351562 157.050781 207.828125 155.800781 208.273438 C 154.550781 208.722656 153.292969 209.140625 152.019531 209.523438 C 150.75 209.910156 149.46875 210.265625 148.183594 210.585938 C 146.894531 210.910156 145.597656 211.199219 144.296875 211.457031 C 142.992188 211.71875 141.6875 211.945312 140.371094 212.140625 C 139.058594 212.335938 137.742188 212.496094 136.417969 212.625 C 135.097656 212.757812 133.773438 212.855469 132.449219 212.917969 C 131.121094 212.984375 129.792969 213.015625 128.464844 213.015625 C 127.136719 213.015625 125.8125 212.984375 124.484375 212.917969 C 123.15625 212.855469 121.835938 212.757812 120.511719 212.625 C 119.191406 212.496094 117.875 212.335938 116.558594 212.140625 C 115.246094 211.945312 113.9375 211.71875 112.636719 211.457031 C 111.332031 211.199219 110.039062 210.910156 108.75 210.585938 C 107.460938 210.265625 106.183594 209.910156 104.910156 209.523438 C 103.640625 209.140625 102.378906 208.722656 101.128906 208.273438 C 99.878906 207.828125 98.640625 207.351562 97.414062 206.84375 C 96.1875 206.335938 94.972656 205.796875 93.773438 205.230469 C 92.570312 204.660156 91.386719 204.0625 90.214844 203.4375 C 89.042969 202.8125 87.890625 202.160156 86.75 201.476562 C 85.609375 200.792969 84.488281 200.082031 83.382812 199.34375 C 82.28125 198.609375 81.195312 197.84375 80.128906 197.050781 C 79.0625 196.261719 78.015625 195.445312 76.988281 194.601562 C 75.960938 193.761719 74.957031 192.894531 73.972656 192.003906 C 72.988281 191.109375 72.027344 190.195312 71.085938 189.257812 C 70.148438 188.316406 69.230469 187.355469 68.339844 186.371094 C 67.449219 185.386719 66.582031 184.382812 65.738281 183.355469 C 64.894531 182.332031 64.078125 181.285156 63.289062 180.21875 C 62.496094 179.152344 61.730469 178.066406 60.992188 176.960938 C 60.253906 175.859375 59.546875 174.738281 58.863281 173.597656 C 58.179688 172.460938 57.523438 171.304688 56.898438 170.132812 C 56.273438 168.960938 55.675781 167.777344 55.105469 166.574219 C 54.539062 165.375 54 164.164062 53.492188 162.933594 C 52.984375 161.707031 52.503906 160.46875 52.058594 159.21875 C 51.609375 157.96875 51.191406 156.710938 50.808594 155.4375 C 50.421875 154.167969 50.066406 152.890625 49.742188 151.601562 C 49.421875 150.3125 49.128906 149.015625 48.871094 147.714844 C 48.609375 146.414062 48.382812 145.105469 48.1875 143.792969 C 47.992188 142.476562 47.828125 141.160156 47.699219 139.839844 C 47.570312 138.515625 47.46875 137.191406 47.40625 135.867188 C 47.339844 134.539062 47.304688 133.214844 47.304688 131.886719 C 47.304688 131.433594 47.386719 130.996094 47.558594 130.578125 C 47.730469 130.160156 47.976562 129.789062 48.296875 129.46875 C 48.617188 129.148438 48.984375 128.902344 49.402344 128.730469 C 49.820312 128.558594 50.257812 128.472656 50.710938 128.476562 Z M 50.710938 128.476562 " fill-opacity="1" fill-rule="nonzero"></path></g><g clip-path="url(#16e29cc725)"><path fill="#e9bb71" d="M 142.984375 47.402344 L 208.140625 47.402344 C 208.332031 47.402344 208.515625 47.4375 208.691406 47.507812 C 208.867188 47.578125 209.023438 47.683594 209.15625 47.816406 C 209.292969 47.953125 209.394531 48.105469 209.46875 48.28125 C 209.539062 48.457031 209.574219 48.640625 209.574219 48.832031 C 209.574219 49.945312 209.515625 51.054688 209.40625 52.164062 C 209.296875 53.273438 209.136719 54.375 208.917969 55.464844 C 208.699219 56.558594 208.429688 57.636719 208.105469 58.703125 C 207.78125 59.765625 207.40625 60.8125 206.980469 61.84375 C 206.554688 62.871094 206.078125 63.875 205.554688 64.859375 C 205.027344 65.839844 204.457031 66.792969 203.835938 67.71875 C 203.21875 68.644531 202.554688 69.539062 201.847656 70.398438 C 201.140625 71.261719 200.394531 72.085938 199.609375 72.871094 C 198.820312 73.660156 197.996094 74.40625 197.136719 75.113281 C 196.273438 75.820312 195.382812 76.480469 194.453125 77.097656 C 193.527344 77.71875 192.574219 78.289062 191.59375 78.8125 C 190.609375 79.339844 189.605469 79.816406 188.578125 80.242188 C 187.546875 80.667969 186.5 81.042969 185.433594 81.363281 C 184.367188 81.6875 183.289062 81.957031 182.199219 82.175781 C 181.105469 82.390625 180.003906 82.554688 178.898438 82.664062 C 177.789062 82.773438 176.679688 82.828125 175.566406 82.828125 C 174.453125 82.828125 173.339844 82.773438 172.230469 82.664062 C 171.125 82.554688 170.023438 82.390625 168.933594 82.175781 C 167.839844 81.957031 166.761719 81.6875 165.695312 81.363281 C 164.628906 81.042969 163.582031 80.667969 162.554688 80.242188 C 161.523438 79.816406 160.519531 79.339844 159.535156 78.8125 C 158.554688 78.289062 157.601562 77.71875 156.675781 77.097656 C 155.75 76.480469 154.855469 75.820312 153.996094 75.113281 C 153.132812 74.40625 152.308594 73.660156 151.523438 72.871094 C 150.734375 72.085938 149.988281 71.261719 149.28125 70.398438 C 148.574219 69.539062 147.910156 68.644531 147.292969 67.71875 C 146.671875 66.792969 146.101562 65.839844 145.578125 64.859375 C 145.050781 63.875 144.574219 62.871094 144.148438 61.84375 C 143.722656 60.8125 143.347656 59.765625 143.023438 58.703125 C 142.699219 57.636719 142.429688 56.558594 142.210938 55.464844 C 141.996094 54.375 141.832031 53.273438 141.722656 52.164062 C 141.613281 51.054688 141.558594 49.945312 141.558594 48.832031 C 141.554688 48.644531 141.589844 48.460938 141.664062 48.285156 C 141.734375 48.109375 141.839844 47.953125 141.972656 47.820312 C 142.105469 47.6875 142.261719 47.582031 142.4375 47.511719 C 142.609375 47.4375 142.792969 47.402344 142.984375 47.402344 Z M 142.984375 47.402344 " fill-opacity="1" fill-rule="nonzero"></path></g><g clip-path="url(#89d04e1a2f)"><path fill="#e9bb71" d="M 142.984375 11.980469 L 208.140625 11.980469 C 208.332031 11.976562 208.515625 12.011719 208.691406 12.085938 C 208.867188 12.15625 209.023438 12.261719 209.15625 12.394531 C 209.292969 12.527344 209.394531 12.683594 209.46875 12.859375 C 209.539062 13.035156 209.574219 13.21875 209.574219 13.410156 C 209.574219 14.523438 209.515625 15.632812 209.40625 16.742188 C 209.296875 17.851562 209.136719 18.949219 208.917969 20.042969 C 208.699219 21.132812 208.429688 22.214844 208.105469 23.277344 C 207.78125 24.34375 207.40625 25.390625 206.980469 26.421875 C 206.554688 27.449219 206.078125 28.453125 205.554688 29.4375 C 205.027344 30.417969 204.457031 31.371094 203.835938 32.296875 C 203.21875 33.222656 202.554688 34.117188 201.847656 34.976562 C 201.140625 35.839844 200.394531 36.660156 199.609375 37.449219 C 198.820312 38.238281 197.996094 38.984375 197.136719 39.691406 C 196.273438 40.394531 195.382812 41.058594 194.453125 41.675781 C 193.527344 42.296875 192.574219 42.867188 191.59375 43.390625 C 190.609375 43.917969 189.605469 44.390625 188.578125 44.816406 C 187.546875 45.246094 186.5 45.617188 185.433594 45.941406 C 184.367188 46.265625 183.289062 46.535156 182.199219 46.753906 C 181.105469 46.96875 180.003906 47.132812 178.898438 47.242188 C 177.789062 47.351562 176.679688 47.40625 175.566406 47.40625 C 174.453125 47.40625 173.339844 47.351562 172.230469 47.242188 C 171.125 47.132812 170.023438 46.96875 168.933594 46.753906 C 167.839844 46.535156 166.761719 46.265625 165.695312 45.941406 C 164.628906 45.617188 163.582031 45.246094 162.554688 44.816406 C 161.523438 44.390625 160.519531 43.917969 159.535156 43.390625 C 158.554688 42.867188 157.601562 42.296875 156.675781 41.675781 C 155.75 41.058594 154.855469 40.394531 153.996094 39.691406 C 153.132812 38.984375 152.308594 38.238281 151.523438 37.449219 C 150.734375 36.660156 149.988281 35.839844 149.28125 34.976562 C 148.574219 34.117188 147.910156 33.222656 147.292969 32.296875 C 146.671875 31.371094 146.101562 30.417969 145.578125 29.4375 C 145.050781 28.453125 144.574219 27.449219 144.148438 26.421875 C 143.722656 25.390625 143.347656 24.34375 143.023438 23.277344 C 142.699219 22.214844 142.429688 21.132812 142.210938 20.042969 C 141.996094 18.949219 141.832031 17.851562 141.722656 16.742188 C 141.613281 15.632812 141.558594 14.523438 141.558594 13.410156 C 141.554688 13.21875 141.589844 13.039062 141.664062 12.863281 C 141.734375 12.6875 141.839844 12.53125 141.972656 12.398438 C 142.105469 12.261719 142.261719 12.160156 142.4375 12.085938 C 142.609375 12.015625 142.792969 11.980469 142.984375 11.980469 Z M 142.984375 11.980469 " fill-opacity="1" fill-rule="nonzero"></path></g><g clip-path="url(#78d0f813f9)"><path fill="#295c51" d="M 128.609375 83.789062 C 100.175781 83.789062 81.292969 104.265625 81.292969 130.199219 C 81.292969 156.128906 100.175781 176.601562 128.609375 176.601562 L 128.609375 213 C 81.75 213 45.808594 175.917969 45.808594 130.199219 C 45.808594 84.472656 81.75 47.394531 128.609375 47.394531 L 128.609375 83.789062 " fill-opacity="1" fill-rule="nonzero"></path></g><g clip-path="url(#898bb4aaf7)"><path fill="#295c51" d="M 106.890625 128.125 C 106.890625 110.878906 120.871094 96.894531 138.121094 96.894531 C 155.367188 96.894531 169.347656 110.878906 169.347656 128.125 C 169.347656 145.371094 155.367188 159.351562 138.121094 159.351562 C 120.871094 159.351562 106.890625 145.371094 106.890625 128.125 " fill-opacity="1" fill-rule="nonzero"></path></g><g fill="#295c51" fill-opacity="1"><g transform="translate(227.353145, 209.909919)"><g><path d="M 2.25 0 L 2.25 -25.0625 L 11.890625 -25.0625 C 13.742188 -25.0625 15.484375 -24.738281 17.109375 -24.09375 C 18.734375 -23.445312 20.132812 -22.5625 21.3125 -21.4375 C 22.5 -20.320312 23.429688 -18.988281 24.109375 -17.4375 C 24.785156 -15.882812 25.125 -14.222656 25.125 -12.453125 C 25.125 -10.710938 24.785156 -9.078125 24.109375 -7.546875 C 23.429688 -6.023438 22.5 -4.707031 21.3125 -3.59375 C 20.132812 -2.488281 18.734375 -1.613281 17.109375 -0.96875 C 15.484375 -0.320312 13.742188 0 11.890625 0 Z M 11.84375 -20.4375 L 7.453125 -20.4375 L 7.453125 -4.625 L 11.84375 -4.625 C 12.945312 -4.625 13.976562 -4.820312 14.9375 -5.21875 C 15.90625 -5.625 16.75 -6.179688 17.46875 -6.890625 C 18.1875 -7.597656 18.75 -8.425781 19.15625 -9.375 C 19.5625 -10.332031 19.765625 -11.359375 19.765625 -12.453125 C 19.765625 -13.578125 19.5625 -14.628906 19.15625 -15.609375 C 18.75 -16.585938 18.1875 -17.429688 17.46875 -18.140625 C 16.75 -18.859375 15.90625 -19.421875 14.9375 -19.828125 C 13.976562 -20.234375 12.945312 -20.4375 11.84375 -20.4375 Z M 11.84375 -20.4375 "></path></g></g></g><g fill="#295c51" fill-opacity="1"><g transform="translate(253.76003, 209.909919)"><g><path d="M 24.0625 -10.84375 C 24.0625 -9.15625 23.796875 -7.609375 23.265625 -6.203125 C 22.742188 -4.804688 22 -3.625 21.03125 -2.65625 C 20.0625 -1.695312 18.890625 -0.953125 17.515625 -0.421875 C 16.148438 0.0976562 14.628906 0.359375 12.953125 0.359375 C 11.265625 0.359375 9.734375 0.0976562 8.359375 -0.421875 C 6.984375 -0.953125 5.816406 -1.695312 4.859375 -2.65625 C 3.910156 -3.625 3.171875 -4.800781 2.640625 -6.1875 C 2.117188 -7.570312 1.859375 -9.125 1.859375 -10.84375 L 1.859375 -25.0625 L 7.046875 -25.0625 L 7.046875 -10.84375 C 7.046875 -8.914062 7.585938 -7.363281 8.671875 -6.1875 C 9.765625 -5.019531 11.207031 -4.4375 13 -4.4375 C 14.78125 -4.4375 16.203125 -5.019531 17.265625 -6.1875 C 18.328125 -7.363281 18.859375 -8.914062 18.859375 -10.84375 L 18.859375 -25.0625 L 24.0625 -25.0625 Z M 24.0625 -10.84375 "></path></g></g></g><g fill="#295c51" fill-opacity="1"><g transform="translate(279.701756, 209.909919)"><g><path d="M 2.25 -25.0625 L 14.03125 -25.0625 C 16.539062 -25.0625 18.582031 -24.421875 20.15625 -23.140625 C 21.726562 -21.867188 22.515625 -20.21875 22.515625 -18.1875 C 22.515625 -17.082031 22.238281 -16.078125 21.6875 -15.171875 C 21.144531 -14.265625 20.394531 -13.515625 19.4375 -12.921875 C 20.632812 -12.347656 21.585938 -11.566406 22.296875 -10.578125 C 23.015625 -9.585938 23.375 -8.484375 23.375 -7.265625 C 23.375 -5.097656 22.566406 -3.34375 20.953125 -2 C 19.347656 -0.664062 17.234375 0 14.609375 0 L 2.25 0 Z M 13.703125 -20.765625 L 7.453125 -20.765625 L 7.453125 -14.8125 L 13.703125 -14.8125 C 14.804688 -14.8125 15.691406 -15.082031 16.359375 -15.625 C 17.023438 -16.164062 17.359375 -16.890625 17.359375 -17.796875 C 17.359375 -18.703125 17.023438 -19.421875 16.359375 -19.953125 C 15.691406 -20.492188 14.804688 -20.765625 13.703125 -20.765625 Z M 14.21875 -4.296875 C 15.40625 -4.296875 16.359375 -4.585938 17.078125 -5.171875 C 17.796875 -5.753906 18.15625 -6.546875 18.15625 -7.546875 C 18.15625 -8.503906 17.796875 -9.28125 17.078125 -9.875 C 16.359375 -10.476562 15.40625 -10.78125 14.21875 -10.78125 L 7.453125 -10.78125 L 7.453125 -4.296875 Z M 14.21875 -4.296875 "></path></g></g></g><g fill="#295c51" fill-opacity="1"><g transform="translate(304.426911, 209.909919)"><g><path d="M 2.25 0 L 2.25 -25.0625 L 7.453125 -25.0625 L 7.453125 -4.578125 L 21.15625 -4.578125 L 21.15625 0 Z M 2.25 0 "></path></g></g></g><g fill="#295c51" fill-opacity="1"><g transform="translate(326.897822, 209.909919)"><g><path d="M 2.25 0 L 2.25 -25.0625 L 7.453125 -25.0625 L 7.453125 0 Z M 2.25 0 "></path></g></g></g><g fill="#295c51" fill-opacity="1"><g transform="translate(336.630449, 209.909919)"><g><path d="M 2.25 -25.0625 L 7.1875 -25.0625 L 19.65625 -8.84375 L 19.65625 -25.0625 L 24.515625 -25.0625 L 24.515625 0 L 19.9375 0 L 7.15625 -16.75 L 7.15625 0 L 2.25 0 Z M 2.25 -25.0625 "></path></g></g></g><g fill="#e9bb71" fill-opacity="1"><g transform="translate(227.353145, 85.873421)"><g><path d="M 26.625 1.1875 C 39 1.1875 49.234375 -5.03125 49.234375 -17.921875 C 49.234375 -31.3125 37.796875 -34.125 28.75 -36.4375 C 22.359375 -37.96875 17.234375 -39.25 17.234375 -43.4375 C 17.234375 -47.359375 21.421875 -49.15625 25.59375 -49.15625 C 30.46875 -49.15625 34.734375 -46.765625 34.734375 -41.5625 L 47.4375 -41.5625 C 47.4375 -53.5 39.671875 -60.84375 25.9375 -60.84375 C 12.71875 -60.84375 4.265625 -54.359375 4.265625 -42.921875 C 4.265625 -30.03125 15.1875 -27.390625 24.234375 -25.171875 C 30.71875 -23.71875 36.171875 -22.4375 36.171875 -17.75 C 36.171875 -13.3125 31.40625 -10.75 26.53125 -10.75 C 21.25 -10.75 16.46875 -13.5625 16.46875 -19.28125 L 3.40625 -19.28125 C 3.40625 -6.484375 12.890625 1.1875 26.625 1.1875 Z M 26.625 1.1875 "></path></g></g></g><g fill="#e9bb71" fill-opacity="1"><g transform="translate(280.155342, 85.873421)"><g><path d="M 19.703125 -11.953125 L 19.703125 -24.234375 L 40.453125 -24.234375 L 40.453125 -35.921875 L 19.703125 -35.921875 L 19.703125 -47.78125 L 42.65625 -47.78125 L 42.65625 -59.734375 L 6.828125 -59.734375 L 6.828125 0 L 43.609375 0 L 43.609375 -11.953125 Z M 19.703125 -11.953125 "></path></g></g></g><g fill="#e9bb71" fill-opacity="1"><g transform="translate(327.839383, 85.873421)"><g><path d="M 35.15625 1.359375 C 53.328125 1.359375 66.890625 -12.03125 66.890625 -29.859375 C 66.890625 -47.609375 53.328125 -61.015625 35.15625 -61.015625 C 16.890625 -61.015625 3.25 -47.53125 3.25 -29.859375 C 3.25 -12.109375 16.890625 1.359375 35.15625 1.359375 Z M 35.15625 -10.84375 C 24.484375 -10.84375 16.390625 -19.109375 16.390625 -29.859375 C 16.390625 -40.609375 24.484375 -48.8125 35.15625 -48.8125 C 45.828125 -48.8125 53.75 -40.703125 53.75 -29.859375 C 53.75 -19.03125 45.828125 -10.84375 35.15625 -10.84375 Z M 35.15625 -10.84375 "></path></g></g></g><g fill="#e9bb71" fill-opacity="1"><g transform="translate(227.353145, 162.76574)"><g><path d="M 46.421875 0 L 60.5 0 L 36.34375 -59.734375 L 24.140625 -59.734375 L 0.6875 0 L 14.421875 0 L 18.515625 -11.265625 L 42.234375 -11.265625 Z M 30.375 -43.9375 L 38.234375 -22.53125 L 22.53125 -22.53125 Z M 30.375 -43.9375 "></path></g></g></g><g fill="#e9bb71" fill-opacity="1"><g transform="translate(288.60028, 162.76574)"><g><path d="M 33.015625 -31.140625 L 33.015625 -21.25 L 50.9375 -21.25 C 48.71875 -15.109375 41.984375 -11 34.296875 -11 C 23.546875 -11 16.46875 -18.6875 16.46875 -29.78125 C 16.46875 -40.953125 23.71875 -48.640625 34.296875 -48.640625 C 41.8125 -48.640625 48.125 -44.625 50.6875 -38.234375 L 64 -38.234375 C 61.1875 -51.625 48.890625 -61.015625 34.046875 -61.015625 C 16.390625 -61.015625 3.328125 -47.609375 3.328125 -29.78125 C 3.328125 -11.859375 16.71875 1.359375 34.296875 1.359375 C 52.21875 1.359375 64.765625 -12.453125 64.765625 -31.140625 Z M 33.015625 -31.140625 "></path></g></g></g><g fill="#e9bb71" fill-opacity="1"><g transform="translate(356.5863, 162.76574)"><g><path d="M 19.703125 -11.953125 L 19.703125 -24.234375 L 40.453125 -24.234375 L 40.453125 -35.921875 L 19.703125 -35.921875 L 19.703125 -47.78125 L 42.65625 -47.78125 L 42.65625 -59.734375 L 6.828125 -59.734375 L 6.828125 0 L 43.609375 0 L 43.609375 -11.953125 Z M 19.703125 -11.953125 "></path></g></g></g><g fill="#e9bb71" fill-opacity="1"><g transform="translate(404.270341, 162.76574)"><g><path d="M 44.625 -59.734375 L 44.625 -23.296875 L 18.4375 -59.734375 L 6.828125 -59.734375 L 6.828125 0 L 19.453125 0 L 19.453125 -37.28125 L 46.5 0 L 57.34375 0 L 57.34375 -59.734375 Z M 44.625 -59.734375 "></path></g></g></g><g fill="#e9bb71" fill-opacity="1"><g transform="translate(468.417769, 162.76574)"><g><path d="M 34.21875 1.359375 C 48.984375 1.359375 60.578125 -8.53125 63.3125 -23.296875 L 50.265625 -23.296875 C 48.125 -15.78125 42.0625 -11 34.21875 -11 C 24.0625 -11 16.46875 -19.03125 16.46875 -29.78125 C 16.46875 -40.53125 24.0625 -48.640625 34.21875 -48.640625 C 41.71875 -48.640625 47.703125 -44.203125 50.171875 -37.203125 L 63.0625 -37.203125 C 60.328125 -51.375 48.71875 -61.015625 34.21875 -61.015625 C 16.640625 -61.015625 3.328125 -47.53125 3.328125 -29.78125 C 3.328125 -12.109375 16.640625 1.359375 34.21875 1.359375 Z M 34.21875 1.359375 "></path></g></g></g><g fill="#e9bb71" fill-opacity="1"><g transform="translate(534.185924, 162.76574)"><g><path d="M 56.578125 -59.734375 L 42.75 -59.734375 L 28.921875 -35.75 L 15.1875 -59.734375 L 1.453125 -59.734375 L 22.265625 -24.140625 L 22.265625 0 L 35.5 0 L 35.5 -24.0625 Z M 56.578125 -59.734375 "></path></g></g></g></svg>